<svg width="300" height="300" viewBox="0 0 300 300" fill="none" xmlns="http://www.w3.org/2000/svg">
<path d="M150 45C160.384 45 170.534 48.0791 179.167 53.8478C187.801 59.6166 194.53 67.816 198.504 77.4091C202.477 87.0022 203.517 97.5582 201.491 107.742C199.466 117.926 194.465 127.281 187.123 134.623C179.781 141.965 170.426 146.966 160.242 148.991C150.058 151.017 139.502 149.977 129.909 146.004C120.316 142.03 112.117 135.301 106.348 126.667C100.579 118.034 97.5 107.884 97.5 97.5L97.5525 95.2215C98.1397 81.7054 103.922 68.9377 113.693 59.5809C123.465 50.2242 136.471 45.0008 150 45ZM171 171C184.924 171 198.277 176.531 208.123 186.377C217.969 196.223 223.5 209.576 223.5 223.5V234C223.5 239.57 221.288 244.911 217.349 248.849C213.411 252.788 208.07 255 202.5 255H97.5C91.9305 255 86.589 252.788 82.6508 248.849C78.7125 244.911 76.5 239.57 76.5 234V223.5C76.5 209.576 82.0312 196.223 91.8769 186.377C101.723 176.531 115.076 171 129 171H171Z" fill="white"/>
</svg>
